<svg width="30" height="30" viewBox="0 0 30 30" fill="none" xmlns="http://www.w3.org/2000/svg">
<path d="M15 15.2925H3.4375C3.4375 21.0525 10.6856 26.005 10.6856 26.005H15" stroke="black" stroke-linecap="round" stroke-linejoin="round"/>
<path d="M6.80249 16.6088C6.80249 20.8538 11.57 23.9863 11.57 23.9863M15 15.2925H26.5625C26.5625 21.0525 19.3144 26.005 19.3144 26.005H15M8.80874 15.2925C7.96749 12.1431 13.5925 9.97814 18.64 9.30939L19.1337 8.40063L21.1237 10.8194L20.0319 10.9969C19.4975 12.7531 16.8225 15.2925 16.8225 15.2925" stroke="black" stroke-linecap="round" stroke-linejoin="round"/>
<path d="M9.69373 15.2926C9.87373 13.6714 11.7537 11.8464 18.9262 9.65576" stroke="black" stroke-linecap="round" stroke-linejoin="round"/>
<path d="M19.1113 9.88133C16.3988 11.2401 13.2363 12.8013 11.02 15.2926M19.6406 10.5232C16.8219 14.352 15 15.2926 15 15.2926M13.4406 15.2926C15.1406 14.2988 19.3719 10.1963 19.3719 10.1963M20.6731 10.2832L25.7675 6.15508C25.8513 6.08737 25.9209 6.0038 25.9723 5.90916C26.0237 5.81452 26.0559 5.71067 26.0671 5.60355C26.0783 5.49643 26.0683 5.38816 26.0376 5.28492C26.0068 5.18169 25.9561 5.08554 25.8881 5.00196C25.8204 4.91829 25.7369 4.8488 25.6423 4.79744C25.5477 4.74609 25.4439 4.71389 25.3369 4.70269C25.2299 4.69149 25.1217 4.7015 25.0185 4.73215C24.9153 4.7628 24.8192 4.8135 24.7356 4.88133L19.6406 9.00946" stroke="black" stroke-linecap="round" stroke-linejoin="round"/>
<path d="M18.6406 9.30933L20.0319 10.9968" stroke="black" stroke-width="0.5" stroke-linecap="round" stroke-linejoin="round"/>
</svg>
