<svg width="30" height="30" viewBox="0 0 30 30" fill="none" xmlns="http://www.w3.org/2000/svg">
<path d="M15 20.5288C15.2183 20.5288 15.4013 20.455 15.5488 20.3075C15.6954 20.16 15.7687 19.9775 15.7687 19.76C15.7687 19.5425 15.695 19.3596 15.5475 19.2113C15.4 19.0629 15.2175 18.9892 15 18.99C14.7825 18.9908 14.6 19.0646 14.4525 19.2113C14.305 19.3579 14.2313 19.5408 14.2313 19.76C14.2313 19.9792 14.305 20.1617 14.4525 20.3075C14.6 20.4533 14.7825 20.5271 15 20.5288ZM15 16.8275C15.1783 16.8275 15.3271 16.7675 15.4463 16.6475C15.5654 16.5275 15.625 16.3788 15.625 16.2013V9.85625C15.625 9.67875 15.565 9.53 15.445 9.41C15.325 9.29 15.1762 9.23042 14.9987 9.23125C14.8212 9.23208 14.6729 9.29167 14.5537 9.41C14.4346 9.52833 14.375 9.67708 14.375 9.85625V16.2025C14.375 16.3792 14.435 16.5275 14.555 16.6475C14.675 16.7675 14.8238 16.8275 15.0013 16.8275M11.68 25C11.4042 25 11.1408 24.9458 10.89 24.8375C10.6392 24.7292 10.4233 24.5837 10.2425 24.4012L5.6 19.7575C5.41917 19.5767 5.27417 19.3608 5.165 19.11C5.05583 18.8592 5.00083 18.5958 5 18.32V11.68C5 11.4042 5.05417 11.1408 5.1625 10.89C5.27083 10.6392 5.41625 10.4233 5.59875 10.2425L10.2425 5.6C10.4233 5.41833 10.6392 5.27333 10.89 5.165C11.1408 5.05667 11.4042 5.00167 11.68 5H18.32C18.5958 5 18.8592 5.05417 19.11 5.1625C19.3608 5.27083 19.5767 5.41625 19.7575 5.59875L24.4012 10.2425C24.5829 10.4233 24.7279 10.6392 24.8362 10.89C24.9446 11.1408 24.9992 11.4042 25 11.68V18.32C25 18.5958 24.9458 18.8592 24.8375 19.11C24.7292 19.3608 24.5837 19.5767 24.4012 19.7575L19.7575 24.4012C19.5767 24.5829 19.3608 24.7279 19.11 24.8362C18.8592 24.9446 18.5958 24.9992 18.32 25H11.68ZM11.375 23.75H18.625L23.75 18.625V11.375L18.625 6.25H11.375L6.25 11.375V18.625L11.375 23.75Z" fill="black"/>
</svg>
