<svg width="70" height="70" viewBox="0 0 70 70" fill="none" xmlns="http://www.w3.org/2000/svg">
<path d="M56.2042 15.5459C52.325 13.7376 48.125 12.4251 43.75 11.6667C43.6731 11.6678 43.5997 11.6993 43.5458 11.7542C43.0208 12.7167 42.4083 13.9709 42 14.9334C37.3596 14.2339 32.6405 14.2339 28 14.9334C27.5917 13.9417 26.9792 12.7167 26.425 11.7542C26.3958 11.6959 26.3083 11.6667 26.2208 11.6667C21.8458 12.4251 17.675 13.7376 13.7667 15.5459C13.7375 15.5459 13.7083 15.5751 13.6792 15.6042C5.74583 27.4751 3.55833 39.0251 4.6375 50.4584C4.6375 50.5167 4.66667 50.5751 4.725 50.6043C9.975 54.4543 15.0208 56.7876 20.0083 58.3334C20.0958 58.3626 20.1833 58.3334 20.2125 58.2751C21.3792 56.6709 22.4292 54.9792 23.3333 53.2001C23.3917 53.0834 23.3333 52.9667 23.2167 52.9376C21.5542 52.2959 19.9792 51.5376 18.4333 50.6626C18.3167 50.6043 18.3167 50.4292 18.4042 50.3418C18.725 50.1084 19.0458 49.8459 19.3667 49.6126C19.425 49.5542 19.5125 49.5542 19.5708 49.5834C29.6042 54.1626 40.425 54.1626 50.3417 49.5834C50.4 49.5542 50.4875 49.5542 50.5458 49.6126C50.8667 49.8751 51.1875 50.1084 51.5083 50.3709C51.625 50.4584 51.625 50.6334 51.4792 50.6917C49.9625 51.5959 48.3583 52.3251 46.6958 52.9667C46.5792 52.9959 46.55 53.1418 46.5792 53.2292C47.5125 55.0084 48.5625 56.7001 49.7 58.3042C49.7875 58.3334 49.875 58.3626 49.9625 58.3334C54.9792 56.7876 60.025 54.4543 65.275 50.6043C65.3333 50.5751 65.3625 50.5167 65.3625 50.4584C66.6458 37.2459 63.2333 25.7834 56.3208 15.6042C56.2917 15.5751 56.2625 15.5459 56.2042 15.5459ZM24.85 43.4876C21.8458 43.4876 19.3375 40.7167 19.3375 37.3042C19.3375 33.8917 21.7875 31.1209 24.85 31.1209C27.9417 31.1209 30.3917 33.9209 30.3625 37.3042C30.3625 40.7167 27.9125 43.4876 24.85 43.4876ZM45.1792 43.4876C42.175 43.4876 39.6667 40.7167 39.6667 37.3042C39.6667 33.8917 42.1167 31.1209 45.1792 31.1209C48.2708 31.1209 50.7208 33.9209 50.6917 37.3042C50.6917 40.7167 48.2708 43.4876 45.1792 43.4876Z" fill="black"/>
</svg>
