<svg width="100" height="100" viewBox="0 0 100 100" fill="none" xmlns="http://www.w3.org/2000/svg">
<path d="M80.2918 22.2083C74.7502 19.625 68.7502 17.75 62.5002 16.6666C62.3903 16.6682 62.2854 16.7131 62.2085 16.7916C61.4585 18.1666 60.5835 19.9583 60.0002 21.3333C53.3709 20.3339 46.6294 20.3339 40.0002 21.3333C39.4168 19.9166 38.5418 18.1666 37.7502 16.7916C37.7085 16.7083 37.5835 16.6666 37.4585 16.6666C31.2085 17.75 25.2502 19.625 19.6668 22.2083C19.6252 22.2083 19.5835 22.25 19.5418 22.2916C8.2085 39.25 5.0835 55.75 6.62516 72.0833C6.62516 72.1666 6.66683 72.25 6.75016 72.2916C14.2502 77.7916 21.4585 81.125 28.5835 83.3333C28.7085 83.375 28.8335 83.3333 28.8752 83.25C30.5418 80.9583 32.0418 78.5416 33.3335 76C33.4168 75.8333 33.3335 75.6666 33.1668 75.625C30.7918 74.7083 28.5418 73.625 26.3335 72.375C26.1668 72.2916 26.1668 72.0416 26.2918 71.9166C26.7502 71.5833 27.2085 71.2083 27.6668 70.875C27.7502 70.7916 27.8752 70.7916 27.9585 70.8333C42.2918 77.375 57.7502 77.375 71.9168 70.8333C72.0002 70.7916 72.1252 70.7916 72.2085 70.875C72.6668 71.25 73.1252 71.5833 73.5835 71.9583C73.7502 72.0833 73.7502 72.3333 73.5418 72.4166C71.3752 73.7083 69.0835 74.75 66.7085 75.6666C66.5418 75.7083 66.5002 75.9166 66.5418 76.0416C67.8752 78.5833 69.3752 81 71.0002 83.2916C71.1252 83.3333 71.2502 83.375 71.3752 83.3333C78.5418 81.125 85.7502 77.7916 93.2502 72.2916C93.3335 72.25 93.3752 72.1666 93.3752 72.0833C95.2085 53.2083 90.3335 36.8333 80.4585 22.2916C80.4168 22.25 80.3752 22.2083 80.2918 22.2083ZM35.5002 62.125C31.2085 62.125 27.6252 58.1666 27.6252 53.2916C27.6252 48.4166 31.1252 44.4583 35.5002 44.4583C39.9168 44.4583 43.4168 48.4583 43.3752 53.2916C43.3752 58.1666 39.8752 62.125 35.5002 62.125ZM64.5418 62.125C60.2502 62.125 56.6668 58.1666 56.6668 53.2916C56.6668 48.4166 60.1668 44.4583 64.5418 44.4583C68.9585 44.4583 72.4585 48.4583 72.4168 53.2916C72.4168 58.1666 68.9585 62.125 64.5418 62.125Z" fill="black"/>
</svg>
